<svg xmlns="http://www.w3.org/2000/svg" viewBox="0 0 72 72"><path fill="#5c9e31" d="M5 17h62v38H5z"/><path fill="#d22f27" d="M5 17h21v38H5z"/><circle cx="26" cy="36" r="12" fill="none" stroke="#fcea2b" stroke-miterlimit="10" stroke-width="2"/><path fill="none" stroke="#fcea2b" stroke-linecap="round" stroke-linejoin="round" d="M26 24v24M26 39.5 17 44h18zM26 33.5l9-5.5-8.5 1.5L17 28z"/><path fill="none" stroke="#fcea2b" stroke-linecap="round" stroke-linejoin="round" d="m38 36-12 5-12-5 12-5z"/><path fill="#d22f27" stroke="#fff" stroke-linecap="round" stroke-linejoin="round" d="M21 28h10v11a5 5 0 0 1-5 5h0a5 5 0 0 1-5-5z"/><path fill="#1e50a0" d="M24.5 28h3v16h-3z"/><path fill="#1e50a0" d="M31 33.5v3H21v-3z"/><path fill="none" stroke="#fff" stroke-linecap="round" stroke-linejoin="round" d="M21 28h10v11a5 5 0 0 1-5 5h0a5 5 0 0 1-5-5z"/><path fill="none" stroke="#000" stroke-linecap="round" stroke-linejoin="round" stroke-width="2" d="M5 17h62v38H5z"/></svg>