<svg xmlns="http://www.w3.org/2000/svg" viewBox="0 0 72 72"><path fill="#fff" d="M5 17h62v38H5z"/><path fill="#222" d="M5 30h62v12H5z"/><path fill="#1e50a0" d="M5 17h62v13H5z"/><path fill="#2e7bd8" d="M20 18h4v4h-4z"/><path fill="#3083e8" d="M24 18h20v4H24z"/><path fill="#3082e7" d="M44 18h4v4h-4z"/><path fill="#2e7ad6" d="M48 18h4v4h-4z"/><path fill="#2f7fe0" d="M20 22h4v4h-4z"/><path fill="#131313" d="M24 22h4v4h-4z"/><path fill="#121111" d="M28 22h4v4h-4z"/><path fill="#1a1919" d="M32 22h4v4h-4z"/><path fill="#2e7ddd" d="M36 22h4v4h-4z"/><path fill="#191818" d="M40 22h4v4h-4z"/><path fill="#282727" d="M44 22h4v4h-4z"/><path fill="#3080e1" d="M48 22h4v4h-4z"/><path fill="#3790fd" d="M20 26h4v4h-4z"/><path fill="#2e7ddd" d="M24 26h4v4h-4z"/><path fill="#2d79d6" d="M28 26h4v4h-4z"/><path fill="#131313" d="M32 26h4v4h-4z"/><path fill="#3183e8" d="M36 26h4v4h-4z"/><path fill="#3489f1" d="M40 26h4v4h-4z"/><path fill="#2f7edf" d="M44 26h4v4h-4z"/><path fill="#3690fd" d="M48 26h4v4h-4z"/><path fill="#161616" d="M20 30h4v4h-4z"/><path fill="#656464" d="M24 30h4v4h-4z"/><path fill="#181818" d="M28 30h4v4h-4z"/><path fill="#565252" d="M32 30h8v4h-8z"/><path fill="#201f1f" d="M40 30h4v4h-4z"/><path fill="#5f5e5e" d="M44 30h4v4h-4z"/><path fill="#131212" d="M48 30h4v4h-4z"/><path fill="#020202" d="M20 34h4v4h-4z"/><path fill="#0e0e0e" d="M24 34h4v4h-4z"/><path fill="#020202" d="M28 34h4v4h-4z"/><path fill="#0d0d0d" d="M32 34h4v4h-4z"/><path fill="#090808" d="M36 34h4v4h-4z"/><path fill="#060606" d="M40 34h4v4h-4z"/><path fill="#1c1c1c" d="M44 34h4v4h-4z"/><path fill="#646363" d="M48 34h4v4h-4z"/><path fill="#0d0d0d" d="M20 38h4v4h-4z"/><path fill="#616161" d="M24 38h4v4h-4z"/><path fill="#0f0f0f" d="M28 38h4v4h-4z"/><path fill="#5e5e5e" d="M32 38h4v4h-4z"/><path fill="#121212" d="M36 38h4v4h-4z"/><path fill="#5d5d5d" d="M40 38h4v4h-4z"/><path fill="#151515" d="M44 38h4v4h-4z"/><path fill="#545151" d="M48 38h4v4h-4z"/><path fill="#fbfbfb" d="M20 42h4v4h-4z"/><path fill="#0d0c0c" d="M24 42h4v4h-4z"/><path fill="#030303" d="M28 42h4v4h-4z"/><path fill="#0a0a0a" d="M32 42h4v4h-4z"/><path fill="#040404" d="M36 42h4v4h-4z"/><path fill="#1d1c1c" d="M40 42h4v4h-4z"/><path fill="#f9f6f6" d="M44 42h4v4h-4z"/><path fill="#d7d2d2" d="M48 42h4v4h-4z"/><path fill="#e1e0e0" d="M20 46h4v4h-4z"/><path fill="#fdfcfc" d="M24 46h4v4h-4z"/><path fill="#dad5d5" d="M28 46h4v4h-4z"/><path fill="#fdfafa" d="M32 46h4v4h-4z"/><path fill="#e9dfdf" d="M36 46h4v4h-4z"/><path fill="#fcf9f9" d="M40 46h4v4h-4z"/><path fill="#d9d5d5" d="M44 46h4v4h-4z"/><path fill="#fcfcfc" d="M48 46h4v4h-4z"/><path fill="none" stroke="#000" stroke-linecap="round" stroke-linejoin="round" stroke-width="2" d="M5 17h62v38H5z"/></svg>